<svg xmlns="http://www.w3.org/2000/svg" width="258" height="213" viewBox="0 0 258 213" fill="none"><path d="M74.9321 113.161C74.3453 110.814 70.8243 101.424 68.7383 97.3164L74.9321 114.335L74.9321 113.161Z" fill="#8DAD22"></path><path d="M247.704 84.4984C222.9 43.6699 180.758 12.1769 133.289 6.80972C85.8582 1.50594 34.7 25.7499 14.5487 69.0626C-5.53929 112.338 12.31 171.344 55.8136 190.975C65.0691 195.172 75.357 197.643 85.5239 196.586C98.4473 195.266 110.084 188.453 122.253 183.981C150.224 173.655 181.065 175.682 210.876 173.949C222.292 173.266 234.471 171.702 243.015 164.151C249.172 158.787 252.574 150.943 254.649 143.028C260.515 120.268 254.372 95.4571 247.704 84.4984Z" fill="#EEF9E9"></path><g clip-path="url(#clip0_5092_57802)"><g clip-path="url(#clip1_5092_57802)"><path fill-rule="evenodd" clip-rule="evenodd" d="M147.216 116.691C150.327 106.373 153.435 96.0995 156.54 85.8172L156.791 85.8696C156.484 96.114 156.187 106.355 155.889 116.691C152.987 116.691 150.193 116.691 147.216 116.691ZM177.545 134.273C177.063 127.095 176.543 119.915 176.056 112.732C175.585 105.684 175.156 98.6308 174.685 91.583C174.117 83.1106 173.485 74.6508 172.958 66.1819C172.886 65.1549 172.658 64.8091 171.631 64.8076C164.451 64.7967 154.668 64.8076 148.798 64.8076C147.981 64.8076 147.64 65.1061 147.322 65.8962C146.375 68.2792 145.424 70.6604 144.476 73.0434C146.484 76.1442 147.656 79.8706 147.91 84.1502C148.45 93.4435 145.468 101.762 139.053 108.875C137.211 110.925 135.417 112.092 132.219 113.142L140.264 139.033C140.636 137.862 141.024 136.685 141.379 135.509C141.624 134.679 141.933 134.273 142.878 134.327C144.607 134.421 146.347 134.354 148.088 134.354C150.5 134.354 152.922 134.354 155.543 134.354C155.543 137.625 155.543 140.849 155.543 144.049C160.538 144.049 172.278 144.049 178.148 144.049C177.891 139.66 177.69 136.401 177.545 134.273Z" fill="#02793E"></path><path fill-rule="evenodd" clip-rule="evenodd" d="M111.918 101.902C113.849 102.528 115.963 102.076 117.884 100.664C120.982 98.3821 122.499 95.2451 123.036 91.3832C123.754 86.27 120.88 82.4768 115.898 82.3213C115.194 82.2959 114.901 82.4731 114.804 83.2253C114.557 85.196 114.222 87.1596 113.909 89.1303C113.251 93.3593 112.59 97.5974 111.918 101.902ZM96.3291 66.2369C96.4737 65.2823 96.7348 64.8076 97.848 64.8086C105.75 64.8158 112.869 64.8158 120.37 65.0111C125.236 65.134 130.031 65.9495 134.524 68.0197C141.364 71.1765 144.82 76.7905 145.268 84.3173C145.775 93.0628 142.897 100.617 137.109 107.037C135.189 109.174 133.385 110.12 128.866 111.295C132.243 122.172 135.599 133.06 139.014 144.05C137.177 144.05 123.311 144.05 117.49 144.05C116.608 144.05 116.272 143.861 116.09 142.869C114.294 133.066 112.435 123.273 110.584 113.477C110.545 113.269 110.443 113.08 110.249 112.573C108.578 123.221 106.92 133.653 105.3 144.05H84.2266C91.6904 96.1474 95.7245 70.2098 96.3291 66.2369Z" fill="#A4C929"></path></g></g><g filter="url(#filter0_d_5092_57802)"><circle cx="53.5" cy="153.5" r="21.5" fill="white"></circle></g><path d="M62.0015 162.089V160.857H59.4794V158.335H58.2478V160.857H55.7257V162.089H58.2478V164.611H59.4794V162.089H62.0015ZM58.8636 155.227C60.6427 155.266 62.1188 155.872 63.2918 157.045C64.4648 158.218 65.0709 159.694 65.11 161.473C65.0709 163.252 64.4648 164.728 63.2918 165.901C62.1188 167.074 60.6427 167.68 58.8636 167.719C57.0845 167.68 55.6084 167.074 54.4354 165.901C53.2624 164.728 52.6563 163.252 52.6172 161.473C52.6563 159.694 53.2624 158.218 54.4354 157.045C55.6084 155.872 57.0845 155.266 58.8636 155.227Z" fill="url(#paint0_linear_5092_57802)"></path><path fill-rule="evenodd" clip-rule="evenodd" d="M59.7634 140.414H42.2852V162.936H49.7926V158.537H51.7629C52.287 156.889 53.3649 155.488 54.778 154.552V152.907H57.3V153.482C57.8213 153.368 58.363 153.307 58.9187 153.307C59.2043 153.307 59.4861 153.323 59.7634 153.354V140.414ZM44.7485 145.399V142.936H47.2706V145.399H44.7485ZM49.7926 145.399V142.936H52.256V145.399H49.7926ZM54.778 145.399V142.936H57.3V145.399H54.778ZM44.7485 150.444V147.921H47.2706V150.444H44.7485ZM49.7926 150.444V147.921H52.256V150.444H49.7926ZM54.778 150.444V147.921H57.3V150.444H54.778ZM44.7485 155.429V152.907H47.2706V155.429H44.7485ZM49.7926 155.429V152.907H52.256V155.429H49.7926ZM44.7485 160.414V157.951H47.2706V160.414H44.7485Z" fill="url(#paint1_linear_5092_57802)"></path><g filter="url(#filter1_d_5092_57802)"><circle cx="62.8347" cy="48.8347" r="27.8347" fill="white"></circle></g><path d="M80.6128 52.6273L58.7564 66.8165C57.9619 67.2718 57.143 67.4098 56.2998 67.2304C55.4567 67.0511 54.7862 66.5779 54.2883 65.8111L50.7617 60.3789C51.5009 59.8385 51.9602 59.1466 52.1396 58.3035C52.3189 57.4603 52.1597 56.6553 51.6618 55.8884C51.1639 55.1215 50.4934 54.6484 49.6502 54.469C48.8071 54.2897 47.9882 54.4276 47.1937 54.8829L43.6671 49.4508C43.1692 48.6839 43.01 47.8788 43.1893 47.0357C43.3687 46.1925 43.828 45.5007 44.5672 44.9602L66.4235 30.771C67.2181 30.3157 68.0369 30.1777 68.8801 30.3571C69.7233 30.5364 70.3938 31.0096 70.8917 31.7764L74.4182 37.2086C73.679 37.749 73.2197 38.4409 73.0404 39.284C72.861 40.1272 73.0203 40.9322 73.5181 41.6991C74.016 42.466 74.6865 42.9391 75.5297 43.1185C76.3729 43.2978 77.1917 43.1599 77.9863 42.7046L81.5128 48.1367C82.0107 48.9036 82.17 49.7087 81.9906 50.5518C81.8113 51.395 81.352 52.0868 80.6128 52.6273ZM62.2362 58.7435L66.3164 39.5614L62.9437 38.844L58.8636 58.0261L62.2362 58.7435ZM71.3335 52.7467C71.9875 52.2615 72.3967 51.6325 72.5611 50.8596C72.7106 50.157 72.5641 49.4648 72.1215 48.7831C71.679 48.1014 71.0925 47.6646 70.3622 47.4725C69.617 47.3507 68.9035 47.5111 68.2218 47.9536C67.5402 48.3962 67.1246 48.9688 66.9751 49.6714C66.8107 50.4443 66.9498 51.1716 67.3924 51.8533C67.8349 52.535 68.4288 52.9367 69.1741 53.0585C69.9044 53.2506 70.6242 53.1466 71.3335 52.7467ZM56.9996 49.6978C57.6536 49.2126 58.0628 48.5836 58.2272 47.8107C58.3767 47.108 58.2301 46.4159 57.7876 45.7342C57.345 45.0525 56.7586 44.6157 56.0283 44.4236C55.2831 44.3018 54.5696 44.4622 53.8879 44.9047C53.2062 45.3473 52.7907 45.9199 52.6412 46.6225C52.4768 47.3954 52.6159 48.1227 53.0584 48.8044C53.501 49.4861 54.0949 49.8878 54.8401 50.0096C55.5704 50.2017 56.2903 50.0977 56.9996 49.6978Z" fill="url(#paint2_linear_5092_57802)"></path><g filter="url(#filter2_d_5092_57802)"><circle cx="210.5" cy="146.5" r="21.5" fill="white"></circle></g><path d="M214.456 133.191C212.636 133.191 210.938 133.637 209.364 134.528C207.79 135.372 206.56 136.544 205.674 138.045C204.739 139.546 204.272 141.187 204.272 142.969C204.272 145.361 205.084 147.471 206.707 149.3L206.264 149.722H205.01L197.187 157.178L199.548 159.429L207.371 151.973V150.777L207.814 150.355C209.733 151.902 211.947 152.676 214.456 152.676C215.834 152.676 217.162 152.442 218.442 151.973C219.672 151.457 220.779 150.754 221.763 149.863C222.698 148.925 223.436 147.87 223.977 146.697C224.469 145.478 224.715 144.235 224.715 142.969C224.715 141.187 224.272 139.546 223.386 138.045C222.452 136.544 221.197 135.372 219.623 134.528C218.048 133.637 216.326 133.191 214.456 133.191ZM214.456 136.216C216.424 136.216 218.097 136.873 219.475 138.186C220.853 139.499 221.541 141.093 221.541 142.969C221.541 144.845 220.853 146.439 219.475 147.752C218.097 149.065 216.424 149.722 214.456 149.722C212.488 149.722 210.815 149.065 209.438 147.752C208.06 146.439 207.371 144.845 207.371 142.969C207.371 141.093 208.06 139.499 209.438 138.186C210.815 136.873 212.488 136.216 214.456 136.216Z" fill="url(#paint3_linear_5092_57802)"></path><g filter="url(#filter3_d_5092_57802)"><circle cx="197" cy="37" r="26" fill="white"></circle></g><path d="M206.49 34.772V38.8128H212.956V34.772H206.49ZM203.258 48.127C204.809 49.5615 206.83 51.4608 208.43 52.9559C209.077 51.885 209.723 50.794 210.37 49.7232C208.77 48.2281 206.749 46.3288 205.197 44.8741C204.551 45.9652 203.904 47.0562 203.258 48.127ZM210.37 23.8616C209.723 22.7908 209.077 21.6997 208.43 20.6289C206.83 22.124 204.809 24.0232 203.258 25.478C203.904 26.5488 204.551 27.6398 205.197 28.7106C206.749 27.2559 208.77 25.3769 210.37 23.8616ZM183.862 30.7311C182.084 30.7311 180.629 32.5495 180.629 34.772V38.8128C180.629 41.0353 182.084 42.8537 183.862 42.8537H185.478V50.9354H188.711V42.8537H190.327L198.409 48.915V24.6698L190.327 30.7311H183.862ZM202.45 36.7924C202.45 34.1052 201.512 31.6807 200.025 30.0239V43.5406C201.512 41.9041 202.45 39.4796 202.45 36.7924Z" fill="url(#paint4_linear_5092_57802)"></path><defs><filter id="filter0_d_5092_57802" x="30.1304" y="131.065" width="46.7391" height="46.7391" filterUnits="userSpaceOnUse" color-interpolation-filters="sRGB"><feGaussianBlur stdDeviation="0.934783"></feGaussianBlur></filter><filter id="filter1_d_5092_57802" x="32.3491" y="19.6745" width="60.9718" height="60.9718" filterUnits="userSpaceOnUse" color-interpolation-filters="sRGB"><feGaussianBlur stdDeviation="1.32546"></feGaussianBlur></filter><filter id="filter2_d_5092_57802" x="187.245" y="124.122" width="46.5102" height="46.5102" filterUnits="userSpaceOnUse" color-interpolation-filters="sRGB"><feGaussianBlur stdDeviation="0.877551"></feGaussianBlur></filter><filter id="filter3_d_5092_57802" x="168.878" y="9.93878" width="56.2449" height="56.2449" filterUnits="userSpaceOnUse" color-interpolation-filters="sRGB"><feGaussianBlur stdDeviation="1.06122"></feGaussianBlur></filter><linearGradient id="paint0_linear_5092_57802" x1="48.7746" y1="171.123" x2="82.2138" y2="152.697" gradientUnits="userSpaceOnUse"><stop stop-color="#02793E"></stop><stop offset="1" stop-color="#BECD4D"></stop></linearGradient><linearGradient id="paint1_linear_5092_57802" x1="36.9091" y1="169.072" x2="88.4695" y2="147.024" gradientUnits="userSpaceOnUse"><stop stop-color="#02793E"></stop><stop offset="1" stop-color="#BECD4D"></stop></linearGradient><linearGradient id="paint2_linear_5092_57802" x1="73.6158" y1="17.6374" x2="37.8155" y2="103.884" gradientUnits="userSpaceOnUse"><stop stop-color="#02793E"></stop><stop offset="1" stop-color="#BECD4D"></stop></linearGradient><linearGradient id="paint3_linear_5092_57802" x1="233.182" y1="166.577" x2="161.188" y2="124.955" gradientUnits="userSpaceOnUse"><stop stop-color="#02793E"></stop><stop offset="1" stop-color="#BECD4D"></stop></linearGradient><linearGradient id="paint4_linear_5092_57802" x1="170.686" y1="61.7631" x2="257.214" y2="14.0822" gradientUnits="userSpaceOnUse"><stop stop-color="#02793E"></stop><stop offset="1" stop-color="#BECD4D"></stop></linearGradient><clipPath id="clip0_5092_57802"><rect width="93.9214" height="93.9214" fill="white" transform="translate(84.2266 56)"></rect></clipPath><clipPath id="clip1_5092_57802"><rect width="93.9214" height="79.2462" fill="white" transform="translate(84.2266 64.8027)"></rect></clipPath></defs></svg>