<svg xmlns="http://www.w3.org/2000/svg" width="258" height="213" viewBox="0 0 258 213" fill="none"><path d="M80.2266 100.5C79.7266 98.5 76.7266 90.5 74.9492 87L80.2266 101.5L80.2266 100.5Z" fill="#8DAD22"></path><path d="M166.101 3.00192C123.736 3.45936 80.6516 21.3649 55.0888 55.1501C29.5914 88.9354 24.9496 138.927 48.8779 173.889C72.8063 208.785 125.893 221.855 160.544 197.545C167.931 192.382 174.469 185.651 178.261 177.417C183.099 166.962 183.164 155.003 185.256 143.698C190.029 117.689 205.524 95.0782 217.684 71.5527C222.326 62.5345 226.641 52.5362 224.745 42.6032C223.437 35.4802 218.991 29.3374 213.892 24.1749C199.182 9.40609 177.476 2.87122 166.101 3.00192Z" fill="#EEF9E9"></path><path d="M141.655 38.0703H81.0629C77.6793 38.0703 74.9336 40.8626 74.9336 44.3148V169.068C74.9336 172.513 77.6793 175.313 81.0629 175.313H141.655C145.042 175.313 147.791 172.513 147.791 169.068V44.3148C147.791 40.8626 145.042 38.0703 141.655 38.0703ZM143.96 165.211C143.96 168.494 141.501 171.151 138.468 171.151H84.2602C81.2207 171.151 78.762 168.494 78.762 165.211V49.0431C78.762 42.3537 81.2207 42.0279 84.2602 42.0279H95.117C95.7475 42.0279 96.2637 42.7448 96.2637 43.6339V44.0175C96.2637 46.1004 97.4036 46.1072 98.8047 46.1072H123.916C125.328 46.1072 126.457 46.0997 126.457 44.0175V43.6339C126.457 42.7448 126.965 42.0279 127.607 42.0279H138.468C141.5 42.0279 143.959 42.9169 143.959 49.0431L143.96 165.211Z" fill="#004724"></path><path d="M114.792 43.5142H107.943C107.709 43.5142 107.52 43.3251 107.52 43.0911C107.52 42.8571 107.709 42.668 107.943 42.668H114.792C115.026 42.668 115.215 42.8571 115.215 43.0911C115.215 43.3251 115.025 43.5142 114.792 43.5142Z" fill="white"></path><path d="M143.967 49.0503V165.218C143.967 168.502 141.508 171.158 138.476 171.158H84.2677C81.2282 171.158 78.7695 168.502 78.7695 165.218V49.0503C78.7695 42.361 81.2282 42.0352 84.2677 42.0352H95.1245C95.755 42.0352 96.2712 42.7521 96.2712 43.6412V44.0248C96.2712 46.1077 97.4111 46.1145 98.8122 46.1145H123.923C125.335 46.1145 126.464 46.107 126.464 44.0248V43.6412C126.464 42.7521 126.973 42.0352 127.615 42.0352H138.475C141.508 42.0345 143.967 42.9235 143.967 49.0503Z" fill="white"></path><g clip-path="url(#clip0_5092_58007)"><g clip-path="url(#clip1_5092_58007)"><path fill-rule="evenodd" clip-rule="evenodd" d="M112.739 58.5774C113.114 57.3339 113.488 56.0959 113.863 54.8567L113.893 54.863C113.856 56.0976 113.82 57.3317 113.784 58.5774C113.434 58.5774 113.098 58.5774 112.739 58.5774ZM116.394 60.6962C116.336 59.8312 116.273 58.9659 116.215 58.1002C116.158 57.2509 116.106 56.4009 116.049 55.5516C115.981 54.5305 115.905 53.511 115.841 52.4904C115.832 52.3667 115.805 52.325 115.681 52.3248C114.816 52.3235 113.637 52.3248 112.93 52.3248C112.831 52.3248 112.79 52.3608 112.752 52.456C112.638 52.7432 112.523 53.0301 112.409 53.3173C112.651 53.691 112.792 54.1401 112.823 54.6558C112.888 55.7758 112.528 56.7783 111.755 57.6355C111.533 57.8826 111.317 58.0231 110.932 58.1497L111.901 61.2699C111.946 61.1287 111.993 60.9869 112.036 60.8452C112.065 60.7452 112.102 60.6962 112.216 60.7027C112.425 60.7141 112.634 60.706 112.844 60.706C113.135 60.706 113.427 60.706 113.743 60.706C113.743 61.1002 113.743 61.4887 113.743 61.8743C114.344 61.8743 115.759 61.8743 116.467 61.8743C116.436 61.3454 116.411 60.9527 116.394 60.6962Z" fill="#02793E"></path><path fill-rule="evenodd" clip-rule="evenodd" d="M108.486 56.7945C108.718 56.8699 108.973 56.8154 109.205 56.6452C109.578 56.3702 109.761 55.9922 109.825 55.5268C109.912 54.9106 109.566 54.4534 108.965 54.4347C108.88 54.4317 108.845 54.453 108.833 54.5437C108.804 54.7812 108.763 55.0178 108.726 55.2553C108.646 55.7649 108.567 56.2757 108.486 56.7945ZM106.607 52.4964C106.624 52.3813 106.656 52.3241 106.79 52.3242C107.742 52.3251 108.6 52.3251 109.504 52.3486C110.091 52.3634 110.668 52.4617 111.21 52.7112C112.034 53.0916 112.451 53.7682 112.505 54.6753C112.566 55.7292 112.219 56.6395 111.521 57.4133C111.29 57.6708 111.073 57.7848 110.528 57.9264C110.935 59.2372 111.339 60.5494 111.751 61.8737C111.53 61.8737 109.859 61.8737 109.157 61.8737C109.051 61.8737 109.01 61.8511 108.988 61.7314C108.772 60.55 108.548 59.3699 108.325 58.1894C108.32 58.1643 108.308 58.1415 108.284 58.0805C108.083 59.3636 107.883 60.6209 107.688 61.8737H105.148C106.048 56.1009 106.534 52.9751 106.607 52.4964Z" fill="#A4C929"></path></g></g><rect x="84.3906" y="88.9902" width="54.7069" height="64.1391" fill="#F9F9F9"></rect><circle cx="92.8802" cy="74.8431" r="4.71611" fill="#E1E3E5"></circle><rect x="86.2773" y="121.061" width="50.934" height="1.88644" rx="0.943222" fill="#E1E3E5"></rect><rect x="101.371" y="96.5352" width="33.956" height="1.88644" rx="0.943222" fill="#E1E3E5"></rect><rect x="99.4844" y="72.0117" width="22.6373" height="5.65933" rx="2.82967" fill="#E1E3E5"></rect><rect x="101.371" y="100.309" width="33.956" height="3.77289" rx="1.88644" fill="#E1E3E5"></rect><rect x="101.371" y="105.969" width="35.8425" height="1.88644" rx="0.943222" fill="#E1E3E5"></rect><rect x="86.2773" y="117.287" width="37.7289" height="1.88644" rx="0.943222" fill="#E1E3E5"></rect><rect x="86.2773" y="132.379" width="37.7289" height="1.88644" rx="0.943222" fill="#E1E3E5"></rect><rect x="86.2773" y="139.926" width="37.7289" height="1.88644" rx="0.943222" fill="#E1E3E5"></rect><rect x="86.2773" y="128.605" width="50.934" height="1.88644" rx="0.943222" fill="#E1E3E5"></rect><rect x="86.2773" y="143.699" width="50.934" height="1.88644" rx="0.943222" fill="#E1E3E5"></rect><path fill-rule="evenodd" clip-rule="evenodd" d="M98.9076 103.761C98.9076 107.022 96.2023 109.666 92.865 109.666C89.5277 109.666 86.8223 107.022 86.8223 103.761C86.8223 100.499 89.5277 97.8555 92.865 97.8555C96.2023 97.8555 98.9076 100.499 98.9076 103.761Z" fill="black"></path><path fill-rule="evenodd" clip-rule="evenodd" d="M98.5052 103.76C98.5052 106.874 95.9806 109.399 92.8665 109.399C89.7522 109.399 87.2275 106.874 87.2275 103.76C87.2275 100.646 89.7522 98.1211 92.8665 98.1211C95.9806 98.1211 98.5052 100.646 98.5052 103.76Z" fill="#5B9040"></path><path fill-rule="evenodd" clip-rule="evenodd" d="M98.3255 103.67C98.3255 106.704 95.8806 109.163 92.865 109.163C89.849 109.163 87.4043 106.704 87.4043 103.67C87.4043 100.637 89.849 98.1777 92.865 98.1777C95.8806 98.1777 98.3255 100.637 98.3255 103.67Z" fill="#72B743"></path><path fill-rule="evenodd" clip-rule="evenodd" d="M88.7537 104.336C88.7537 104.336 88.5821 107.238 90.3143 107.743C92.0465 108.248 90.1035 106.039 90.1035 106.039L89.1632 104.568L88.7537 104.336Z" fill="#5B9040"></path><path fill-rule="evenodd" clip-rule="evenodd" d="M95.5947 107.087C95.5947 107.087 96.53 106.553 96.2971 104.531H96.0843L95.9517 104.689L95.7858 105.701L95.5947 107.087Z" fill="#5B9040"></path><path fill-rule="evenodd" clip-rule="evenodd" d="M89.1625 103.244C89.1625 103.244 88.7188 101.886 89.6076 101.34L90.1028 102.631L89.8904 103.025L89.1625 103.244Z" fill="#5B9040"></path><path fill-rule="evenodd" clip-rule="evenodd" d="M88.3998 103.388C88.3998 103.388 88.3786 103.498 88.661 103.498C88.661 103.498 89.0451 103.253 89.892 103.718L90.041 103.417L89.3985 103.296C89.3985 103.296 88.7034 103.076 88.3998 103.388Z" fill="#5B9040"></path><path fill-rule="evenodd" clip-rule="evenodd" d="M95.5303 100.988C95.5303 100.988 96.3812 101.313 95.8085 103.242L95.2826 103.469L95.1123 103.023V102.029L95.5303 100.988Z" fill="#5B9040"></path><path fill-rule="evenodd" clip-rule="evenodd" d="M95.1123 103.755C95.1123 103.755 95.8168 103.431 96.5047 103.656C96.5047 103.656 95.9781 102.138 95.1123 103.755Z" fill="#5B9040"></path><path fill-rule="evenodd" clip-rule="evenodd" d="M89.9461 101.084C89.0493 101.861 89.2229 103.744 90.6817 103.718C91.5894 103.703 92.1174 103.001 92.0133 102.164C91.8748 101.054 90.8331 100.315 89.9461 101.084Z" fill="#FFFFFE"></path><path fill-rule="evenodd" clip-rule="evenodd" d="M95.9505 104.688C94.326 105.481 92.2192 105.762 90.4272 105.283C89.9512 105.156 89.5496 104.971 89.1989 104.718C89.1647 105.34 89.1487 105.302 89.1758 105.627C91.7642 106.547 94.0241 106.494 95.959 105.477C95.9922 105.22 95.9923 104.951 95.9505 104.688Z" fill="#FFFFFE"></path><path fill-rule="evenodd" clip-rule="evenodd" d="M94.0238 100.317C94.8598 100.3 95.5286 100.978 95.6213 101.943C95.7141 102.907 95.1235 103.722 94.0795 103.74C92.0352 103.776 92.0399 100.357 94.0238 100.317Z" fill="#FFFFFE"></path><path fill-rule="evenodd" clip-rule="evenodd" d="M94.0817 106.342C94.3796 106.44 94.6112 106.608 94.7564 106.867L94.7561 106.866C94.6822 107.256 93.8812 107.771 93.2664 107.905C92.1154 108.155 90.8991 107.744 91.1915 106.421C91.2094 106.41 91.2277 106.4 91.2463 106.39C92.242 106.517 93.2429 106.48 94.0817 106.342Z" fill="#3A6232"></path><path fill-rule="evenodd" clip-rule="evenodd" d="M90.7244 107.742L90.7235 107.726L90.7244 107.742Z" fill="#3A6232"></path><path fill-rule="evenodd" clip-rule="evenodd" d="M91.1752 106.432C91.158 106.443 91.1665 106.437 91.1752 106.432V106.432Z" fill="#3A6232"></path><path fill-rule="evenodd" clip-rule="evenodd" d="M91.1934 106.42C91.1739 106.432 91.1839 106.426 91.1934 106.42V106.42Z" fill="#3A6232"></path><path fill-rule="evenodd" clip-rule="evenodd" d="M95.1236 107.186C95.3761 106.923 95.5887 106.613 95.7461 106.256C95.7594 106.226 95.7721 106.195 95.7843 106.164L95.7624 106.166C95.3256 106.375 94.9775 106.47 94.7275 106.466L94.7217 106.46C94.8708 106.593 94.9973 106.808 95.1236 107.186Z" fill="#538B40"></path><path fill-rule="evenodd" clip-rule="evenodd" d="M90.5251 107.721C90.4943 107.199 90.5904 106.812 90.7651 106.565C90.3211 106.521 89.7848 106.444 89.3154 106.166L89.3125 106.17C89.5489 106.856 89.9847 107.372 90.5251 107.721Z" fill="#538B40"></path><path fill-rule="evenodd" clip-rule="evenodd" d="M90.7674 106.564L90.7762 106.552L90.7674 106.564Z" fill="#3A6232"></path><path fill-rule="evenodd" clip-rule="evenodd" d="M91.1951 106.42C90.9027 107.744 92.119 108.154 93.27 107.904C93.8848 107.77 94.6858 107.255 94.7597 106.865C94.8403 107.009 94.8947 107.18 94.919 107.383C93.782 108.377 92.0193 108.542 90.7358 107.845C90.6686 107.118 90.8269 106.642 91.1951 106.42Z" fill="#2F4927"></path><path fill-rule="evenodd" clip-rule="evenodd" d="M89.3122 106.164C89.7829 106.444 90.3215 106.521 90.7671 106.565C90.8299 106.476 90.9027 106.405 90.9835 106.352C90.3767 106.257 89.7776 106.098 89.2246 105.861C89.2498 105.965 89.2789 106.066 89.3122 106.164Z" fill="#437037"></path><path fill-rule="evenodd" clip-rule="evenodd" d="M94.7271 106.466C94.9819 106.471 95.339 106.371 95.788 106.154C95.8431 106.013 95.8882 105.86 95.921 105.701C95.6148 105.938 95.0709 106.145 94.3936 106.284C94.5193 106.324 94.628 106.376 94.7271 106.466Z" fill="#437037"></path><path fill-rule="evenodd" clip-rule="evenodd" d="M93.6515 100.369C92.4677 101.17 92.23 102.8 93.8741 103.732C92.165 103.556 92.1078 100.784 93.6515 100.369ZM95.702 104.804C95.8183 104.937 95.8521 105.206 95.8487 105.534C95.8854 105.516 95.9219 105.497 95.9583 105.478C95.9915 105.221 95.9917 104.952 95.9498 104.688C95.8684 104.728 95.7858 104.766 95.702 104.804ZM89.4304 104.871C89.2989 105.121 89.2801 105.394 89.3199 105.678C89.2719 105.661 89.224 105.645 89.1758 105.628C89.1487 105.303 89.1647 105.341 89.1989 104.719C89.2737 104.772 89.351 104.823 89.4304 104.871ZM90.3332 100.843L90.7476 100.767L90.7562 100.767C89.4065 101.163 89.135 103.066 90.4579 103.705C90.354 103.691 90.2578 103.667 90.1695 103.634L90.1681 103.633C90.1505 103.626 90.133 103.619 90.116 103.612L90.1125 103.61C90.082 103.597 90.0524 103.582 90.0239 103.566L90.0156 103.561C90.003 103.554 89.9904 103.547 89.9778 103.539L89.9671 103.532C89.9567 103.526 89.9465 103.519 89.9365 103.512L89.9212 103.502C89.9117 103.495 89.9024 103.488 89.8933 103.481L89.8773 103.469C89.8691 103.462 89.8612 103.456 89.8533 103.449L89.8356 103.434L89.8155 103.416L89.7978 103.4L89.7778 103.38L89.7608 103.363L89.7427 103.343L89.7251 103.323L89.7096 103.305C89.7035 103.298 89.6974 103.29 89.6915 103.283L89.6913 103.283C89.2184 102.684 89.3269 101.62 89.9465 101.083C90.0732 100.973 90.203 100.894 90.3332 100.843Z" fill="#DAE7E2"></path><path fill-rule="evenodd" clip-rule="evenodd" d="M88.9508 104.521C88.8832 104.462 88.8176 104.4 88.7537 104.335C88.6849 104.168 88.8143 104.152 88.8815 104.191C89.3007 104.567 89.8101 104.85 90.4046 105.01C92.0654 105.456 93.9537 105.153 95.4863 104.604C95.6427 104.548 95.9462 104.455 96.1292 104.404C96.2694 104.364 96.3082 104.343 96.3401 104.421C96.3809 104.521 96.2276 104.568 96.1535 104.592C96.6874 107.974 92.8652 109.254 90.5385 108.042C89.4975 107.501 88.7781 106.243 88.9508 104.521ZM90.5266 107.721C89.9081 107.322 89.4266 106.703 89.2242 105.861C89.7772 106.097 90.3762 106.256 90.9831 106.352C90.6777 106.552 90.4847 107.01 90.5266 107.721ZM95.1268 107.185C94.9178 106.56 94.7092 106.38 94.3971 106.283C95.0744 106.143 95.6184 105.936 95.9246 105.699C95.8838 105.898 95.8238 106.086 95.7492 106.254C95.5919 106.612 95.3793 106.922 95.1268 107.185ZM94.0847 106.34C94.5479 106.493 94.8501 106.815 94.9184 107.383C93.7814 108.376 92.0187 108.541 90.7352 107.844C90.6646 107.083 90.8422 106.596 91.2493 106.389C92.2449 106.516 93.2459 106.479 94.0847 106.34ZM93.9416 101.588C93.95 101.588 93.9583 101.589 93.9667 101.589C93.8968 101.654 93.8532 101.746 93.8532 101.849C93.8532 102.044 94.0115 102.203 94.207 102.203C94.3267 102.203 94.4325 102.143 94.4966 102.052C94.4979 102.068 94.4985 102.083 94.4985 102.099C94.4985 102.403 94.3742 102.65 94.0144 102.65C93.6548 102.65 93.4576 102.403 93.4576 102.099C93.4576 101.794 93.6339 101.588 93.9416 101.588ZM90.5116 103.71C90.3866 103.699 90.2723 103.672 90.1689 103.633L90.1675 103.632C90.1499 103.626 90.1325 103.618 90.1154 103.611L90.1119 103.61C90.0815 103.596 90.0518 103.581 90.0233 103.565L90.015 103.561C90.0024 103.554 89.9898 103.546 89.9772 103.538L89.9665 103.532C89.9561 103.525 89.9459 103.518 89.9359 103.512L89.9206 103.501C89.9111 103.494 89.9018 103.487 89.8927 103.48L89.8767 103.468C89.8685 103.462 89.8607 103.455 89.8528 103.449L89.835 103.434L89.8149 103.416L89.7972 103.399L89.7772 103.379L89.7602 103.362L89.7421 103.342L89.7245 103.323L89.709 103.305C89.7029 103.297 89.6968 103.29 89.691 103.282L89.6907 103.282C89.2178 102.683 89.3264 101.619 89.9459 101.082C90.8328 100.313 91.8746 101.052 92.013 102.163C92.1172 102.999 91.5892 103.701 90.6814 103.717C90.6225 103.718 90.5662 103.715 90.5116 103.71ZM94.0267 100.318C92.0428 100.358 92.038 103.776 94.0823 103.741C95.1263 103.723 95.717 102.908 95.6242 101.944C95.5314 100.979 94.8626 100.301 94.0267 100.318ZM95.1806 103.729C95.3225 103.633 95.452 103.463 95.6231 103.404C96.0327 103.262 96.2609 103.475 96.4557 103.558C96.5083 103.581 96.5594 103.549 96.5047 103.494C96.2185 103.21 95.8666 103.046 95.4725 103.308C95.7374 102.939 95.8588 102.454 95.8097 101.93C95.7055 100.819 94.9549 100.038 94.0166 100.057C91.7899 100.103 91.7845 104.042 94.0792 104.001C94.4897 103.993 94.8377 103.873 95.1124 103.673C95.0882 103.733 95.1225 103.769 95.1806 103.729ZM89.8315 100.908C90.8513 100.024 92.0493 100.874 92.2084 102.151C92.3284 103.113 91.7212 103.92 90.6772 103.938C90.131 103.948 89.7418 103.724 89.5005 103.388C89.1436 103.266 88.7725 103.24 88.3989 103.387C88.1329 103.491 88.3838 103.121 88.9253 103.109C89.0676 103.107 89.2127 103.126 89.3708 103.169C89.0327 102.465 89.2045 101.452 89.8315 100.908ZM90.7161 101.61C90.4085 101.61 90.2632 101.815 90.2632 102.12C90.2632 102.424 90.4606 102.672 90.8202 102.672C91.1797 102.672 91.3042 102.424 91.3042 102.12C91.3042 102.106 91.3036 102.092 91.3024 102.079C91.2375 102.155 91.1411 102.203 91.0336 102.203C90.838 102.203 90.6797 102.045 90.6797 101.849C90.6797 101.758 90.7141 101.675 90.7709 101.612C90.7528 101.61 90.7345 101.61 90.7161 101.61ZM95.9499 104.688C94.3254 105.482 92.2186 105.763 90.4266 105.283C89.9506 105.156 89.549 104.971 89.1984 104.719C89.1641 105.341 89.1481 105.303 89.1752 105.628C91.7636 106.547 94.0235 106.494 95.9584 105.478C95.9916 105.22 95.9918 104.951 95.9499 104.688Z" fill="black"></path><path fill-rule="evenodd" clip-rule="evenodd" d="M90.6725 96.8697C91.4862 96.5971 91.6696 96.9667 91.5046 97.3463C91.3881 97.614 90.8929 97.7834 90.5095 97.9308C89.4865 98.3242 88.4611 98.2382 90.6725 96.8697ZM95.3305 97.9039C96.9114 98.384 96.4816 97.836 95.4356 97.1331C94.5183 96.5169 94.3306 96.5931 94.2479 96.8015C94.1145 97.137 94.4051 97.6229 95.3305 97.9039Z" fill="black"></path><path d="M166.15 127.208C178.875 115.771 179.919 96.185 168.483 83.4604C157.046 70.7359 137.46 69.6918 124.735 81.1283C112.011 92.5648 110.966 112.151 122.403 124.876C133.84 137.6 153.426 138.644 166.15 127.208Z" fill="#BBD8F3" fill-opacity="0.5"></path><path d="M160.791 88.9793C160.047 89.0467 159.277 88.8301 158.659 88.3141C154.426 84.7837 149.072 83.1133 143.582 83.6103C138.092 84.1069 133.124 86.7117 129.594 90.9447C128.562 92.1826 126.721 92.3491 125.484 91.3166C124.246 90.2849 124.08 88.4444 125.112 87.2071C129.641 81.7768 136.014 78.4349 143.055 77.7975C150.098 77.1602 156.967 79.3036 162.396 83.8326C163.634 84.8643 163.801 86.7048 162.768 87.9422C162.253 88.5609 161.535 88.9119 160.791 88.9793Z" fill="#EFF6FF"></path><path d="M175.722 125.608L171.984 130.09L191.907 146.705L195.644 142.223L175.722 125.608Z" fill="#A7C0A3"></path><path d="M194.411 137.805L223.026 161.67C225.366 163.622 225.676 167.098 223.728 169.434C221.776 171.774 218.305 172.088 215.965 170.136L187.35 146.271C185.01 144.319 184.696 140.848 186.648 138.508C188.596 136.173 192.07 135.853 194.411 137.805Z" fill="#DEF0D2"></path><path d="M114.154 78.0611C99.737 95.3469 102.063 121.047 119.348 135.463C136.634 149.88 162.334 147.555 176.751 130.269C191.168 112.983 188.841 87.2831 171.556 72.8664C154.27 58.4492 128.57 60.7754 114.154 78.0611ZM169.242 124.006C158.284 137.145 138.749 138.913 125.611 127.955C112.472 116.997 110.704 97.462 121.662 84.3231C132.62 71.1843 152.155 69.4164 165.294 80.3745C178.433 91.3327 180.201 110.867 169.242 124.006Z" fill="#052001"></path><path d="M211.024 151.699L222.986 161.675C225.326 163.627 225.637 167.103 223.689 169.439C221.737 171.779 218.266 172.093 215.925 170.141L203.964 160.165L211.024 151.699Z" fill="#052001"></path><defs><clipPath id="clip0_5092_58007"><rect width="11.3187" height="11.3187" fill="white" transform="translate(105.148 51.2617)"></rect></clipPath><clipPath id="clip1_5092_58007"><rect width="11.3187" height="9.55013" fill="white" transform="translate(105.148 52.3242)"></rect></clipPath></defs></svg>